# This file uses centimeters as units for non-parametric coordinates.

mtllib Base2.mtl
g default
v 6.226588 -0.147942 -2.023141
v 6.547017 -0.147942 0.000001
v 6.226584 -0.147942 2.023142
v 5.296650 -0.147942 3.848243
v 3.848242 -0.147942 5.296651
v 2.023141 -0.147942 6.226586
v 0.000000 -0.147942 6.547017
v -2.023140 -0.147942 6.226586
v -3.848242 -0.147942 5.296652
v -5.296650 -0.147942 3.848244
v -6.226585 -0.147942 2.023143
v -6.547017 -0.147942 0.000001
v -6.226585 -0.147942 -2.023140
v -5.296651 -0.147942 -3.848241
v -3.848243 -0.147942 -5.296650
v -2.023141 -0.147942 -6.226585
v 0.000001 -0.147942 -6.547017
v 2.023143 -0.147942 -6.226586
v 3.848245 -0.147942 -5.296651
v 5.296655 -0.147942 -3.848243
v 0.500920 2.168368 -0.162757
v 0.500001 2.145970 -0.363269
v 0.500001 2.162726 -0.214609
v 0.500001 2.168368 -0.164560
v 0.500920 2.168368 -0.162757
v 0.526698 2.168368 0.000002
v 0.500920 2.168368 0.162760
v 0.500001 2.168368 0.164563
v 0.500001 2.162726 0.214613
v 0.500001 2.145970 0.363273
v 0.500001 2.130611 0.450771
v 0.500001 2.088931 0.688193
v 0.500001 1.951716 1.308497
v 0.426391 1.959172 1.312296
v -0.426389 1.959172 1.312296
v -0.499999 1.951716 1.308497
v -0.499999 2.088931 0.688193
v -0.499999 2.130611 0.450771
v -0.499999 2.145970 0.363273
v -0.500918 2.168368 0.162760
v -0.499999 2.162726 0.214613
v -0.499999 2.168368 0.164563
v -0.526696 2.168368 0.000002
v -0.500918 2.168368 -0.162756
v -0.499999 2.168368 -0.164560
v -0.499999 2.162726 -0.214609
v -0.499999 2.145970 -0.363269
v -0.499999 2.130611 -0.450766
v -0.499999 2.088931 -0.688189
v -0.499999 1.951716 -1.308493
v -0.426389 1.959172 -1.312293
v 0.426391 1.959172 -1.312293
v 0.500001 1.951716 -1.308493
v 0.500001 2.088931 -0.688189
v 0.500001 2.130611 -0.450766
v 0.500001 1.314830 -0.830642
v 0.500001 1.627469 -1.143282
v 0.500001 1.114102 -0.436694
v 0.500001 1.951644 -0.164560
v 0.500001 1.951646 0.164563
v 0.500001 1.114104 0.436697
v 0.500001 1.314830 0.830646
v 0.500001 1.627471 1.143285
v -0.499999 1.627471 1.143285
v 0.000001 1.973893 1.319796
v -0.499999 1.314830 0.830646
v -0.499999 1.114104 0.436697
v -0.499999 1.951646 0.164563
v -0.499999 1.951644 -0.164560
v -0.499999 1.114102 -0.436694
v -0.499999 1.314830 -0.830642
v -0.499999 1.627469 -1.143282
v 0.000001 1.973893 -1.319793
v -0.288803 1.114102 -0.436694
v -0.162757 1.146827 -0.500917
v 0.000001 1.159961 -0.526695
v 0.162759 1.146827 -0.500917
v 0.288805 1.114102 -0.436694
v 0.500001 1.071002 -0.164560
v 0.500001 1.071002 0.164563
v 0.288805 1.114104 0.436697
v 0.162759 1.146827 0.500921
v 0.000001 1.159963 0.526699
v -0.162757 1.146827 0.500921
v -0.288803 1.114104 0.436697
v -0.499999 1.071002 0.164563
v -0.499999 1.071002 -0.164560
v -0.426106 1.093970 -0.309583
v -0.309584 1.112426 -0.426105
v 0.309586 1.112426 -0.426105
v 0.426108 1.093970 -0.309583
v 0.426108 1.093972 0.309587
v 0.309586 1.112428 0.426109
v -0.309584 1.112428 0.426109
v -0.426106 1.093972 0.309587
v 0.500920 0.466559 -0.162757
v 0.426108 0.466559 -0.309583
v 0.526698 0.466559 0.000002
v 0.000001 0.466559 0.000002
v 0.309586 0.466559 -0.426105
v 0.500920 0.466559 0.162760
v 0.162759 0.466559 -0.500917
v 0.426108 0.466559 0.309587
v 0.000001 0.466559 -0.526695
v 0.309586 0.466559 0.426109
v -0.162757 0.466559 -0.500917
v 0.162759 0.466559 0.500921
v -0.309584 0.466559 -0.426105
v 0.000001 0.466559 0.526699
v -0.426106 0.466559 -0.309583
v -0.162757 0.466559 0.500921
v -0.500918 0.466559 -0.162756
v -0.309584 0.466559 0.426109
v -0.526696 0.466559 0.000002
v -0.426106 0.466559 0.309587
v -0.500918 0.466559 0.162760
vt 0.737764 0.172746
vt 0.750000 0.250000
vt 0.737764 0.327254
vt 0.702254 0.396946
vt 0.646946 0.452254
vt 0.577254 0.487764
vt 0.500000 0.500000
vt 0.422746 0.487764
vt 0.353054 0.452254
vt 0.297746 0.396946
vt 0.262236 0.327254
vt 0.250000 0.250000
vt 0.262236 0.172746
vt 0.297746 0.103054
vt 0.353054 0.047746
vt 0.422746 0.012236
vt 0.500000 -0.000000
vt 0.577254 0.012236
vt 0.646946 0.047746
vt 0.702254 0.103054
vt 0.486797 0.973594
vt 0.250000 0.500000
vt 0.275000 0.500000
vt 0.486057 0.969015
vt 0.486623 0.972440
vt 0.486813 0.973594
vt 0.725000 0.500000
vt 0.750000 0.500000
vt 0.513203 0.973594
vt 0.513203 0.973594
vt 0.511883 0.973594
vt 0.510562 0.973594
vt 0.700000 0.500000
vt 0.510546 0.973594
vt 0.510621 0.972440
vt 0.510845 0.969015
vt 0.675000 0.500000
vt 0.650000 0.500000
vt 0.511370 0.965874
vt 0.512794 0.957352
vt 0.625000 0.500000
vt 0.518253 0.929297
vt 0.517295 0.930822
vt 0.600000 0.500000
vt 0.510377 0.930822
vt 0.575000 0.500000
vt 0.550000 0.500000
vt 0.510028 0.929297
vt 0.504265 0.957352
vt 0.525000 0.500000
vt 0.502281 0.965874
vt 0.501549 0.969015
vt 0.500000 0.973594
vt 0.500000 0.500000
vt 0.500402 0.972440
vt 0.500016 0.973594
vt 0.498680 0.973594
vt 0.475000 0.500000
vt 0.497359 0.973594
vt 0.450000 0.500000
vt 0.497343 0.973594
vt 0.496842 0.972440
vt 0.495352 0.969015
vt 0.425000 0.500000
vt 0.400000 0.500000
vt 0.494307 0.965874
vt 0.491470 0.957352
vt 0.375000 0.500000
vt 0.482902 0.929297
vt 0.482705 0.930822
vt 0.350000 0.500000
vt 0.475788 0.930822
vt 0.325000 0.500000
vt 0.300000 0.500000
vt 0.474677 0.929297
vt 0.482941 0.957352
vt 0.485218 0.965874
vt 0.626409 0.935591
vt 0.532660 0.862844
vt 0.534513 0.879804
vt 0.536211 0.889804
vt 0.591841 0.970159
vt 0.532036 0.857186
vt 0.648603 0.892034
vt 0.555999 0.858050
vt 0.555998 0.821660
vt 0.648603 0.795466
vt 0.626409 0.751908
vt 0.532660 0.815386
vt 0.532036 0.820796
vt 0.591842 0.717341
vt 0.536211 0.790124
vt 0.534513 0.799473
vt 0.555991 0.699074
vt 0.540819 0.764905
vt 0.564711 0.688440
vt 0.575000 0.312500
vt 0.564475 0.660767
vt 0.513234 0.933831
vt 0.564712 0.312500
vt 0.564475 0.340173
vt 0.591841 0.282659
vt 0.536211 0.202304
vt 0.540819 0.229587
vt 0.555991 0.300926
vt 0.626409 0.248091
vt 0.532660 0.175344
vt 0.534513 0.192304
vt 0.532036 0.169686
vt 0.648603 0.204534
vt 0.555999 0.170550
vt 0.555998 0.134160
vt 0.648603 0.107966
vt 0.626409 0.064408
vt 0.532660 0.127886
vt 0.532036 0.133296
vt 0.591842 0.029841
vt 0.536211 0.102624
vt 0.534513 0.111973
vt 0.555991 0.011574
vt 0.540819 0.077405
vt 0.400000 0.312500
vt 0.400000 0.688440
vt 0.410288 0.688440
vt 0.410525 0.660767
vt 0.410992 0.500470
vt 0.410525 0.340173
vt 0.410288 0.312500
vt 0.480149 0.933831
vt 0.540819 0.917087
vt 0.555991 0.988426
vt 0.387500 0.312500
vt 0.387500 0.688440
vt 0.375000 0.312500
vt 0.375000 0.391897
vt 0.377038 0.439283
vt 0.377856 0.500470
vt 0.377038 0.561657
vt 0.375000 0.609043
vt 0.375000 0.688440
vt 0.653368 0.861945
vt 0.653368 0.825555
vt 0.587500 0.312500
vt 0.587500 0.688440
vt 0.600000 0.688440
vt 0.600000 0.609043
vt 0.597962 0.561657
vt 0.597144 0.500470
vt 0.597962 0.439283
vt 0.600000 0.391897
vt 0.600000 0.312500
vt 0.575000 0.688440
vt 0.564008 0.500470
vt 0.653368 0.174445
vt 0.653368 0.138055
vt 0.625000 0.391897
vt 0.625000 0.312500
vt 0.617210 0.312500
vt 0.621361 0.340279
vt 0.624697 0.384085
vt 0.617210 0.688440
vt 0.625000 0.688440
vt 0.625000 0.609043
vt 0.624697 0.616855
vt 0.621361 0.660661
vt 0.607789 0.688440
vt 0.603638 0.660660
vt 0.600303 0.616855
vt 0.600303 0.384085
vt 0.603638 0.340279
vt 0.607789 0.312500
vt 0.375000 0.312500
vt 0.375000 0.341702
vt 0.375000 0.341702
vt 0.375154 0.341702
vt 0.375154 0.337983
vt 0.375154 0.322872
vt 0.387500 0.323266
vt 0.387500 0.312500
vt 0.612500 0.341702
vt 0.625000 0.341702
vt 0.625000 0.312500
vt 0.612500 0.312500
vt 0.626409 0.064408
vt 0.500000 0.150000
vt 0.648603 0.107966
vt 0.400000 0.323583
vt 0.400000 0.312500
vt 0.600000 0.341702
vt 0.600000 0.312500
vt 0.656250 0.156250
vt 0.591842 0.029841
vt 0.401769 0.323611
vt 0.412500 0.324173
vt 0.412500 0.312500
vt 0.587500 0.312500
vt 0.587500 0.323266
vt 0.599846 0.322872
vt 0.599846 0.337983
vt 0.599846 0.341702
vt 0.648603 0.204534
vt 0.548284 0.007647
vt 0.425000 0.324398
vt 0.425000 0.312500
vt 0.575000 0.323583
vt 0.575000 0.312500
vt 0.626409 0.248091
vt 0.500000 -0.000000
vt 0.437500 0.324173
vt 0.437500 0.312500
vt 0.562500 0.312500
vt 0.562500 0.324173
vt 0.573231 0.323611
vt 0.591841 0.282659
vt 0.451716 0.007647
vt 0.448231 0.323611
vt 0.450000 0.323583
vt 0.450000 0.312500
vt 0.550000 0.324398
vt 0.550000 0.312500
vt 0.548284 0.304853
vt 0.408159 0.029841
vt 0.462500 0.323266
vt 0.462500 0.312500
vt 0.537500 0.324173
vt 0.537500 0.312500
vt 0.500000 0.312500
vt 0.373591 0.064409
vt 0.474846 0.322872
vt 0.474846 0.337983
vt 0.474846 0.341702
vt 0.475000 0.341702
vt 0.475000 0.312500
vt 0.525000 0.312500
vt 0.525000 0.323583
vt 0.526769 0.323611
vt 0.451716 0.304853
vt 0.351397 0.107966
vt 0.487500 0.341702
vt 0.487500 0.312500
vt 0.512500 0.323266
vt 0.512500 0.312500
vt 0.408159 0.282659
vt 0.343750 0.156250
vt 0.500000 0.341702
vt 0.500000 0.312500
vt 0.500153 0.341702
vt 0.500153 0.337983
vt 0.500153 0.322872
vt 0.373591 0.248091
vt 0.351397 0.204534
vn -0.000000 -1.000000 0.000000
vn -0.000000 -1.000000 0.000000
vn -0.000000 -1.000000 0.000000
vn -0.000000 -1.000000 0.000000
vn -0.000000 -1.000000 0.000000
vn -0.000000 -1.000000 0.000000
vn -0.000000 -1.000000 0.000000
vn -0.000000 -1.000000 0.000000
vn -0.000000 -1.000000 0.000000
vn -0.000000 -1.000000 0.000000
vn -0.000000 -1.000000 0.000000
vn -0.000000 -1.000000 0.000000
vn -0.000000 -1.000000 0.000000
vn -0.000000 -1.000000 0.000000
vn -0.000000 -1.000000 0.000000
vn -0.000000 -1.000000 0.000000
vn -0.000000 -1.000000 0.000000
vn -0.000000 -1.000000 0.000000
vn -0.000000 -1.000000 0.000000
vn -0.000000 -1.000000 0.000000
vn 0.343725 0.932999 -0.106612
vn 0.343074 0.932994 -0.108728
vn 0.298375 0.932106 -0.205308
vn 0.310011 0.932154 -0.187036
vn 0.326620 0.931447 -0.160394
vn 0.326620 0.931447 -0.160394
vn 0.359087 0.933304 0.000000
vn 0.358508 0.931798 -0.056781
vn 0.359088 0.933304 0.000000
vn 0.343074 0.932994 0.108729
vn 0.343074 0.932994 0.108729
vn 0.326619 0.931447 0.160394
vn 0.326619 0.931447 0.160394
vn 0.310011 0.932154 0.187036
vn 0.298375 0.932106 0.205308
vn 0.234460 0.929412 0.284996
vn 0.269193 0.930129 0.249789
vn 0.255574 0.930118 0.263747
vn 0.128046 0.928233 0.349268
vn 0.198618 0.926358 0.320019
vn 0.115114 0.927991 0.354375
vn -0.000001 0.926076 0.377338
vn -0.000000 0.926076 0.377338
vn -0.115115 0.927991 0.354375
vn -0.128047 0.928233 0.349268
vn -0.234460 0.929412 0.284996
vn -0.198618 0.926358 0.320019
vn -0.255574 0.930118 0.263747
vn -0.298375 0.932106 0.205308
vn -0.269193 0.930129 0.249789
vn -0.310011 0.932154 0.187036
vn -0.343074 0.932994 0.108729
vn -0.343074 0.932994 0.108729
vn -0.326620 0.931447 0.160395
vn -0.326620 0.931447 0.160395
vn -0.359087 0.933304 0.000000
vn -0.359087 0.933304 0.000000
vn -0.343074 0.932994 -0.108729
vn -0.343074 0.932994 -0.108729
vn -0.326620 0.931447 -0.160394
vn -0.326620 0.931447 -0.160394
vn -0.310011 0.932154 -0.187036
vn -0.298375 0.932106 -0.205308
vn -0.234461 0.929411 -0.284996
vn -0.269193 0.930129 -0.249789
vn -0.255574 0.930118 -0.263747
vn -0.128047 0.928233 -0.349268
vn -0.198620 0.926358 -0.320019
vn -0.115115 0.927991 -0.354375
vn 0.000001 0.926076 -0.377338
vn 0.000001 0.926076 -0.377338
vn 0.115116 0.927991 -0.354375
vn 0.128048 0.928233 -0.349268
vn 0.234461 0.929411 -0.284996
vn 0.198620 0.926358 -0.320019
vn 0.255574 0.930118 -0.263747
vn 0.269193 0.930129 -0.249789
vn -1.000000 -0.000000 0.000000
vn -1.000000 -0.000000 0.000000
vn -1.000000 -0.000000 0.000000
vn -1.000000 -0.000000 0.000000
vn -1.000000 -0.000000 0.000000
vn -0.991372 -0.000000 0.131080
vn -1.000000 -0.000000 0.000000
vn -0.991555 -0.000000 0.129690
vn -0.991555 -0.000000 -0.129690
vn -1.000000 -0.000000 0.000000
vn -1.000000 -0.000000 0.000000
vn -1.000000 -0.000000 0.000000
vn -0.991372 -0.000000 -0.131079
vn -1.000000 -0.000000 0.000000
vn -1.000000 -0.000000 0.000000
vn -1.000000 -0.000000 0.000000
vn -1.000000 -0.000000 0.000000
vn -1.000000 -0.000000 0.000000
vn 0.000000 0.453992 -0.891006
vn 0.000000 0.453992 -0.891006
vn 0.000000 0.453992 -0.891006
vn 0.000000 0.597642 -0.801763
vn 0.000000 0.597642 -0.801763
vn 0.000000 0.453992 -0.891006
vn 0.000000 0.453992 -0.891006
vn 1.000000 0.000000 0.000000
vn 1.000000 0.000000 0.000000
vn 1.000000 0.000000 0.000000
vn 1.000000 0.000000 0.000000
vn 1.000000 0.000000 0.000000
vn 1.000000 0.000000 0.000000
vn 1.000000 0.000000 0.000000
vn 0.991372 0.000000 -0.131079
vn 1.000000 0.000000 0.000000
vn 0.991555 0.000000 -0.129690
vn 0.991555 0.000000 0.129690
vn 1.000000 0.000000 0.000000
vn 1.000000 0.000000 0.000000
vn 1.000000 0.000000 0.000000
vn 0.991372 0.000000 0.131079
vn 1.000000 0.000000 0.000000
vn 1.000000 0.000000 0.000000
vn 1.000000 0.000000 0.000000
vn 1.000000 0.000000 0.000000
vn 1.000000 0.000000 0.000000
vn -0.000000 0.597642 0.801763
vn -0.000000 0.597642 0.801763
vn -0.000000 0.453990 0.891007
vn -0.000000 0.453990 0.891007
vn -0.000000 0.453990 0.891007
vn -0.000000 0.453990 0.891007
vn -0.000000 0.453990 0.891007
vn -1.000000 -0.000000 0.000000
vn -1.000000 -0.000000 0.000000
vn -0.000000 0.804902 0.593407
vn -0.000000 0.804902 0.593407
vn 0.000001 0.898494 0.438987
vn 0.000000 0.892446 0.451155
vn -0.000000 0.891006 0.453991
vn -0.000000 0.891006 0.453991
vn -0.000000 0.891006 0.453991
vn -0.000000 0.892446 0.451155
vn -0.000000 0.898494 0.438987
vn -0.975960 -0.000000 0.217949
vn -0.975960 -0.000000 -0.217948
vn -0.000000 0.804902 -0.593408
vn -0.000000 0.804902 -0.593408
vn 0.000001 0.898495 -0.438985
vn 0.000000 0.892447 -0.451153
vn -0.000000 0.891007 -0.453989
vn -0.000000 0.891008 -0.453989
vn -0.000000 0.891008 -0.453989
vn -0.000000 0.892447 -0.451153
vn -0.000000 0.898495 -0.438985
vn 0.975960 0.000000 -0.217949
vn 0.975960 0.000000 0.217948
vn 0.000014 0.987689 0.156430
vn 0.000014 0.987689 0.156430
vn 0.000014 0.987689 0.156430
vn -0.000000 0.987689 0.156430
vn -0.000000 0.987689 0.156430
vn -0.000000 0.987689 0.156430
vn 0.000012 0.987689 -0.156433
vn 0.000012 0.987689 -0.156433
vn 0.000012 0.987689 -0.156433
vn -0.000000 0.987689 -0.156433
vn -0.000000 0.987689 -0.156433
vn -0.000000 0.987689 -0.156433
vn -0.971001 -0.000000 0.239074
vn -0.971001 -0.000000 0.239074
vn -0.891007 -0.000000 0.453990
vn -0.800875 -0.000000 0.598831
vn -0.808475 -0.000000 0.588531
vn -1.000000 -0.000000 -0.000001
vn -1.000000 -0.000000 -0.000001
vn 0.000006 1.000000 0.000000
vn -0.000000 1.000000 0.000000
vn -0.000000 1.000000 0.000000
vn -0.577730 -0.000000 0.816228
vn -0.585332 -0.000000 0.810794
vn -0.971001 -0.000000 -0.239075
vn -0.971001 -0.000000 -0.239075
vn -0.000000 1.000000 0.000000
vn -0.000003 1.000000 0.000000
vn -0.453991 -0.000000 0.891006
vn -0.290725 -0.000000 0.956807
vn -0.306182 -0.000000 0.951973
vn -0.808474 -0.000000 -0.588532
vn -0.800874 -0.000000 -0.598833
vn -0.000000 1.000000 0.000000
vn -0.000003 1.000000 0.000000
vn 0.000000 -0.000000 1.000000
vn 0.000000 -0.000000 1.000000
vn -0.577730 -0.000000 -0.816228
vn -0.585332 -0.000000 -0.810794
vn -0.000006 1.000000 0.000000
vn 0.000001 1.000000 0.000000
vn 0.290726 -0.000000 0.956806
vn 0.306182 -0.000000 0.951973
vn -0.306182 -0.000000 -0.951973
vn -0.290726 -0.000000 -0.956806
vn -0.453991 -0.000000 -0.891006
vn -0.000003 1.000000 0.000000
vn -0.000007 1.000000 0.000000
vn 0.453991 0.000000 0.891006
vn 0.577730 0.000000 0.816228
vn 0.585332 0.000000 0.810794
vn 0.000000 0.000000 -1.000000
vn 0.000000 0.000000 -1.000000
vn 0.000007 1.000000 0.000000
vn 0.000003 1.000000 0.000000
vn 0.800874 0.000000 0.598832
vn 0.808474 0.000000 0.588533
vn 0.290726 0.000000 -0.956806
vn 0.306182 0.000000 -0.951973
vn -0.000001 1.000000 0.000000
vn 0.000006 1.000000 0.000000
vn 0.971001 0.000000 0.239076
vn 0.971001 0.000000 0.239076
vn 0.585332 0.000000 -0.810794
vn 0.577730 0.000000 -0.816228
vn 0.453991 0.000000 -0.891006
vn -0.000008 1.000000 0.000000
vn -0.000000 1.000000 0.000000
vn 1.000000 0.000000 0.000000
vn 1.000000 0.000000 0.000000
vn 0.800874 0.000000 -0.598832
vn 0.808474 0.000000 -0.588532
vn 0.000003 1.000000 0.000000
vn -0.000000 1.000000 0.000000
vn 0.971001 0.000000 -0.239075
vn 0.971001 0.000000 -0.239075
vn 0.000006 1.000000 0.000000
vn -0.000000 1.000000 0.000000
s off
g pCone3
usemtl initialShadingGroup
f 1/1/1 2/2/2 3/3/3 4/4/4 5/5/5 6/6/6 7/7/7 8/8/8 9/9/9 10/10/10 11/11/11 12/12/12 13/13/13 14/14/14 15/15/15 16/16/16 17/17/17 18/18/18 19/19/19 20/20/20
s 1
f 21/21/21 1/22/22 20/23/23 22/24/24 23/25/25 24/26/26
f 2/27/27 1/28/22 21/29/21 25/30/28 26/31/29
f 27/32/30 3/33/31 2/27/27 26/31/29
f 28/34/32 29/35/33 30/36/34 4/37/35 3/33/31 27/32/30
f 5/38/36 4/37/35 30/36/34 31/39/37 32/40/38
f 6/41/39 5/38/36 32/40/38 33/42/40 34/43/41
f 7/44/42 6/41/39 34/43/41 65/99/43
f 35/45/44 8/46/45 7/44/42 65/99/43
f 9/47/46 8/46/45 35/45/44 36/48/47 37/49/48
f 10/50/49 9/47/46 37/49/48 38/51/50 39/52/51
f 40/53/52 11/54/53 10/50/49 39/52/51 41/55/54 42/56/55
f 43/57/56 12/58/57 11/54/53 40/53/52
f 44/59/58 13/60/59 12/58/57 43/57/56
f 45/61/60 46/62/61 47/63/62 14/64/63 13/60/59 44/59/58
f 15/65/64 14/64/63 47/63/62 48/66/65 49/67/66
f 16/68/67 15/65/64 49/67/66 50/69/68 51/70/69
f 17/71/70 16/68/67 51/70/69 73/129/71
f 52/72/72 18/73/73 17/71/70 73/129/71
f 19/74/74 18/73/73 52/72/72 53/75/75 54/76/76
f 20/23/23 19/74/74 54/76/76 55/77/77 22/24/24
s 2
f 56/78/78 23/79/79 22/80/80 55/81/81 57/82/82
f 24/83/83 23/79/79 56/78/78 58/84/84 59/85/85
f 60/86/86 61/87/87 62/88/88 29/89/89 28/90/90
f 63/91/91 31/92/92 30/93/93 29/89/89 62/88/88
f 33/94/94 32/95/95 31/92/92 63/91/91
s 4
f 65/153/96 34/98/97 33/96/98 63/152/99 64/97/100 36/100/101 35/101/102
s 2
f 64/102/103 38/103/104 37/104/105 36/105/106
f 66/106/107 41/107/108 39/108/109 38/103/104 64/102/103
f 42/109/110 41/107/108 66/106/107 67/110/111 68/111/112
f 69/112/113 70/113/114 71/114/115 46/115/116 45/116/117
f 72/117/118 48/118/119 47/119/120 46/115/116 71/114/115
f 50/120/121 49/121/122 48/118/119 72/117/118
s 7
f 72/122/123 57/123/124 53/124/125 52/125/126 73/126/127 51/127/128 50/128/129
s 2
f 57/82/82 55/81/81 54/130/130 53/131/131
s 7
f 71/132/132 56/133/133 57/123/124 72/122/123
f 70/134/134 74/135/135 75/136/136 76/137/137 77/138/138 78/139/139 58/140/140 56/133/133 71/132/132
s 2
f 59/85/85 58/84/84 79/141/141
f 80/142/142 61/87/87 60/86/86
s 4
f 66/143/143 62/144/144 61/145/145 81/146/146 82/147/147 83/148/148 84/149/149 85/150/150 67/151/151
f 64/97/100 63/152/99 62/144/144 66/143/143
s 2
f 68/111/112 67/110/111 86/154/152
f 87/155/153 70/113/114 69/112/113
s 7
f 74/156/135 70/157/134 87/158/154 88/159/155 89/160/156
f 79/161/157 58/162/140 78/163/139 90/164/158 91/165/159
s 4
f 81/146/146 61/145/145 80/166/160 92/167/161 93/168/162
f 67/151/151 85/150/150 94/169/163 95/170/164 86/171/165
s 2
f 96/172/166 25/173/167 21/174/168 24/175/83 59/176/85 79/177/141 91/178/169 97/179/170
f 26/180/171 25/181/167 96/182/166 98/183/172
s 8
f 97/184/173 99/185/174 96/186/175
s 2
f 91/178/169 90/187/176 100/188/177 97/179/170
f 27/189/178 26/180/171 98/183/172 101/190/179
s 8
f 96/186/175 99/185/174 98/191/180
f 100/192/181 99/185/174 97/184/173
s 2
f 100/188/177 90/187/176 78/193/182 77/194/183 102/195/184
f 103/196/185 92/197/186 80/198/142 60/199/86 28/200/90 27/189/178 101/190/179
s 8
f 98/191/180 99/185/174 101/201/187
f 102/202/188 99/185/174 100/192/181
s 2
f 77/194/183 76/203/189 104/204/190 102/195/184
f 93/205/191 92/197/186 103/196/185 105/206/192
s 8
f 101/201/187 99/185/174 103/207/193
f 104/208/194 99/185/174 102/202/188
s 2
f 76/203/189 75/209/195 106/210/196 104/204/190
f 107/211/197 82/212/198 81/213/199 93/205/191 105/206/192
s 8
f 103/207/193 99/185/174 105/214/200
f 106/215/201 99/185/174 104/208/194
s 2
f 106/210/196 75/209/195 74/216/202 89/217/203 108/218/204
f 83/219/205 82/212/198 107/211/197 109/220/206
s 8
f 105/214/200 99/185/174 107/221/207
f 108/222/208 99/185/174 106/215/201
s 2
f 89/217/203 88/223/209 110/224/210 108/218/204
f 84/225/211 83/219/205 109/220/206 111/226/212
s 8
f 107/221/207 99/185/174 109/227/213
f 110/228/214 99/185/174 108/222/208
s 2
f 110/224/210 88/223/209 87/229/153 69/230/113 45/231/117 44/232/215 112/233/216
f 113/234/217 94/235/218 85/236/219 84/225/211 111/226/212
s 8
f 109/227/213 99/185/174 111/237/220
f 112/238/221 99/185/174 110/228/214
s 2
f 44/232/215 43/239/222 114/240/223 112/233/216
f 95/241/224 94/235/218 113/234/217 115/242/225
s 8
f 111/237/220 99/185/174 113/243/226
f 114/244/227 99/185/174 112/238/221
s 2
f 43/239/222 40/245/228 116/246/229 114/240/223
f 116/246/229 40/245/228 42/247/110 68/248/112 86/249/152 95/241/224 115/242/225
s 8
f 113/243/226 99/185/174 115/250/230
f 116/251/231 99/185/174 114/244/227
f 115/250/230 99/185/174 116/251/231
