# This file uses centimeters as units for non-parametric coordinates.

mtllib pan_ver2.mtl
g default
v -2.746957 3.064031 -0.704656
v -2.943811 3.046718 -0.692099
v -2.944084 3.220368 -0.351290
v -2.747236 3.240716 -0.357892
v -2.746518 2.788837 -0.979850
v -2.943387 2.776251 -0.962566
v -3.113990 2.821314 -0.528528
v -3.114200 2.955437 -0.265296
v -2.944177 3.280203 0.026499
v -2.747331 3.301597 0.026499
v -2.745984 2.442073 -1.156536
v -2.942851 2.435442 -1.136217
v -3.113662 2.612412 -0.737430
v -3.114272 3.001653 0.026499
v -3.238506 2.577172 -0.351290
v -3.238651 2.668465 -0.172116
v -2.944084 3.220367 0.404289
v -2.747236 3.240716 0.410891
v -2.745389 2.057682 -1.217417
v -2.942260 2.057653 -1.196053
v -3.113250 2.349181 -0.871553
v -3.238284 2.434979 -0.493483
v -3.114200 2.955437 0.318294
v -3.238700 2.699923 0.026499
v -3.314294 2.320302 -0.164750
v -3.314369 2.366518 -0.074046
v -2.943811 3.046717 0.745097
v -2.746957 3.064030 0.757655
v -2.744783 1.673291 -1.156536
v -2.941667 1.679865 -1.136216
v -3.112792 2.057386 -0.917769
v -3.238002 2.255805 -0.584777
v -3.314184 2.248320 -0.236733
v -3.113990 2.821314 0.581526
v -3.238651 2.668465 0.225115
v -3.314391 2.382443 0.026499
v -3.339490 2.057031 0.026499
v -2.943387 2.776250 1.015564
v -2.746526 2.788836 1.032848
v -2.744233 1.326527 -0.979851
v -2.941131 1.339056 -0.962566
v -3.112335 1.765591 -0.871553
v -3.237691 2.057190 -0.616234
v -3.314040 2.157616 -0.282948
v -3.113662 2.612412 0.790428
v -3.238506 2.577172 0.404289
v -3.314369 2.366518 0.127045
v -2.942853 2.435442 1.189215
v -2.745981 2.442073 1.209536
v -2.743802 1.051333 -0.704657
v -2.940709 1.068589 -0.692098
v -3.111921 1.502360 -0.737430
v -3.237380 1.858575 -0.584777
v -3.313882 2.057071 -0.298873
v -3.113250 2.349180 0.924552
v -3.238284 2.434979 0.546482
v -3.314294 2.320302 0.217749
v -2.942260 2.057653 1.249051
v -2.745380 2.057682 1.270416
v -2.743524 0.874648 -0.357892
v -2.940435 0.894939 -0.351290
v -3.111593 1.293458 -0.528527
v -3.237098 1.679401 -0.493483
v -3.313726 1.956525 -0.282948
v -3.112792 2.057386 0.970767
v -3.238002 2.255805 0.637775
v -3.314185 2.248320 0.289731
v -2.941667 1.679865 1.189215
v -2.744775 1.673291 1.209535
v -2.743430 0.813767 0.026499
v -2.940343 0.835103 0.026499
v -3.111385 1.159335 -0.265295
v -3.236877 1.537208 -0.351290
v -3.313583 1.865822 -0.236733
v -3.112333 1.765592 0.924552
v -3.237691 2.057190 0.669233
v -3.314042 2.157616 0.335947
v -2.941131 1.339056 1.015564
v -2.744233 1.326527 1.032849
v -2.743524 0.874648 0.410891
v -2.940435 0.894939 0.404289
v -3.111310 1.113119 0.026499
v -3.236732 1.445915 -0.172116
v -3.313470 1.793839 -0.164750
v -3.111921 1.502360 0.790428
v -3.237380 1.858575 0.637775
v -3.313882 2.057071 0.351872
v -2.940709 1.068589 0.745097
v -2.743802 1.051333 0.757656
v -3.111385 1.159335 0.318294
v -3.236682 1.414457 0.026499
v -3.313396 1.747623 -0.074046
v -3.111593 1.293458 0.581526
v -3.237100 1.679401 0.546482
v -3.313726 1.956525 0.335947
v -3.236732 1.445915 0.225115
v -3.313373 1.731698 0.026499
v -3.236877 1.537208 0.404289
v -3.313583 1.865822 0.289731
v -3.313396 1.747623 0.127045
v -3.313470 1.793839 0.217749
v -2.927718 3.001482 -0.280234
v -2.927497 2.860493 -0.556941
v -2.927154 2.640896 -0.776538
v -3.006778 2.699833 -0.182284
v -3.006629 2.603866 -0.370630
v -2.927795 3.050064 0.026499
v -2.926719 2.364189 -0.917528
v -3.006395 2.454394 -0.520103
v -3.006831 2.732900 0.026499
v -3.081115 2.382436 -0.079193
v -3.081037 2.333854 -0.174541
v -2.927718 3.001482 0.333232
v -2.926238 2.057457 -0.966110
v -3.006097 2.266047 -0.616070
v -3.080921 2.258187 -0.250208
v -3.006778 2.699832 0.235283
v -3.081138 2.399176 0.026499
v -3.105756 2.057107 0.026499
v -2.927497 2.860492 0.609940
v -2.925758 1.750724 -0.917528
v -3.005771 2.057264 -0.649138
v -3.080770 2.162840 -0.298790
v -3.006629 2.603865 0.423629
v -3.081115 2.382436 0.132192
v -2.927154 2.640896 0.829536
v -2.925323 1.474017 -0.776538
v -3.005443 1.848481 -0.616070
v -3.080604 2.057147 -0.315530
v -3.006395 2.454393 0.573102
v -3.081037 2.333854 0.227539
v -2.926719 2.364189 0.970526
v -2.924979 1.254420 -0.556941
v -3.005149 1.660135 -0.520103
v -3.080438 1.951454 -0.298790
v -3.006097 2.266047 0.669069
v -3.080919 2.258187 0.303207
v -2.926238 2.057457 1.019107
v -2.924758 1.113430 -0.280233
v -3.004915 1.510663 -0.370630
v -3.080289 1.856107 -0.250208
v -3.005771 2.057264 0.702137
v -3.080768 2.162839 0.351789
v -2.925758 1.750724 0.970526
v -2.924682 1.064849 0.026499
v -3.004762 1.414696 -0.182284
v -3.080169 1.780439 -0.174541
v -3.005443 1.848481 0.669069
v -3.080604 2.057147 0.368529
v -2.925323 1.474017 0.829536
v -2.924758 1.113430 0.333232
v -3.004710 1.381627 0.026499
v -3.080095 1.731858 -0.079193
v -3.005147 1.660135 0.573102
v -3.080438 1.951454 0.351789
v -2.924979 1.254420 0.609940
v -3.004762 1.414696 0.235283
v -3.080066 1.715118 0.026499
v -3.004915 1.510663 0.423629
v -3.080289 1.856107 0.303207
v -3.080095 1.731858 0.132192
v -3.080169 1.780439 0.227539
vt 0.050000 0.795696
vt 0.050000 0.800000
vt 0.000000 0.800000
vt 0.000000 0.795696
vt 0.100000 0.795696
vt 0.100000 0.800000
vt 0.050000 0.850000
vt 0.000000 0.850000
vt 1.000000 0.795696
vt 1.000000 0.800000
vt 0.950000 0.800000
vt 0.950000 0.795696
vt 0.150000 0.795696
vt 0.150000 0.800000
vt 0.100000 0.850000
vt 1.000000 0.850000
vt 0.950000 0.850000
vt 0.050000 0.900000
vt 0.000000 0.900000
vt 0.900000 0.800000
vt 0.900000 0.795696
vt 0.200000 0.795696
vt 0.200000 0.800000
vt 0.150000 0.850000
vt 0.100000 0.900000
vt 0.900000 0.850000
vt 1.000000 0.900000
vt 0.950000 0.900000
vt 0.050000 0.950000
vt 0.000000 0.950000
vt 0.850000 0.800000
vt 0.850000 0.795696
vt 0.250000 0.795696
vt 0.250000 0.800000
vt 0.200000 0.850000
vt 0.150000 0.900000
vt 0.100000 0.950000
vt 0.850000 0.850000
vt 0.900000 0.900000
vt 1.000000 0.950000
vt 0.950000 0.950000
vt 0.025000 1.000000
vt 0.800000 0.800000
vt 0.800000 0.795696
vt 0.300000 0.795696
vt 0.300000 0.800000
vt 0.250000 0.850000
vt 0.200000 0.900000
vt 0.150000 0.950000
vt 0.075000 1.000000
vt 0.800000 0.850000
vt 0.850000 0.900000
vt 0.900000 0.950000
vt 0.975000 1.000000
vt 0.750000 0.800000
vt 0.750000 0.795696
vt 0.350000 0.795696
vt 0.350000 0.800000
vt 0.300000 0.850000
vt 0.250000 0.900000
vt 0.200000 0.950000
vt 0.125000 1.000000
vt 0.750000 0.850000
vt 0.800000 0.900000
vt 0.850000 0.950000
vt 0.925000 1.000000
vt 0.700000 0.800000
vt 0.700000 0.795696
vt 0.400000 0.795696
vt 0.400000 0.800000
vt 0.350000 0.850000
vt 0.300000 0.900000
vt 0.250000 0.950000
vt 0.175000 1.000000
vt 0.700000 0.850000
vt 0.750000 0.900000
vt 0.800000 0.950000
vt 0.875000 1.000000
vt 0.650000 0.800000
vt 0.650000 0.795696
vt 0.450000 0.795696
vt 0.450000 0.800000
vt 0.400000 0.850000
vt 0.350000 0.900000
vt 0.300000 0.950000
vt 0.225000 1.000000
vt 0.650000 0.850000
vt 0.700000 0.900000
vt 0.750000 0.950000
vt 0.825000 1.000000
vt 0.600000 0.800000
vt 0.600000 0.795696
vt 0.500000 0.795696
vt 0.500000 0.800000
vt 0.450000 0.850000
vt 0.400000 0.900000
vt 0.350000 0.950000
vt 0.275000 1.000000
vt 0.600000 0.850000
vt 0.650000 0.900000
vt 0.700000 0.950000
vt 0.775000 1.000000
vt 0.550000 0.800000
vt 0.550000 0.795696
vt 0.500000 0.850000
vt 0.450000 0.900000
vt 0.400000 0.950000
vt 0.325000 1.000000
vt 0.550000 0.850000
vt 0.600000 0.900000
vt 0.650000 0.950000
vt 0.725000 1.000000
vt 0.500000 0.900000
vt 0.450000 0.950000
vt 0.375000 1.000000
vt 0.550000 0.900000
vt 0.600000 0.950000
vt 0.675000 1.000000
vt 0.500000 0.950000
vt 0.425000 1.000000
vt 0.550000 0.950000
vt 0.625000 1.000000
vt 0.475000 1.000000
vt 0.575000 1.000000
vt 0.525000 1.000000
vt 0.050000 0.807046
vt 0.000000 0.807046
vt 0.000000 0.850000
vt 0.050000 0.850000
vt 0.100000 0.807046
vt 0.100000 0.850000
vt 0.000000 0.900000
vt 0.050000 0.900000
vt 1.000000 0.807046
vt 0.950000 0.807046
vt 0.950000 0.850000
vt 1.000000 0.850000
vt 0.150000 0.807046
vt 0.150000 0.850000
vt 0.100000 0.900000
vt 0.950000 0.900000
vt 1.000000 0.900000
vt 0.000000 0.950000
vt 0.050000 0.950000
vt 0.900000 0.807046
vt 0.900000 0.850000
vt 0.200000 0.807046
vt 0.200000 0.850000
vt 0.150000 0.900000
vt 0.100000 0.950000
vt 0.900000 0.900000
vt 0.950000 0.950000
vt 1.000000 0.950000
vt 0.025000 1.000000
vt 0.850000 0.807046
vt 0.850000 0.850000
vt 0.250000 0.807046
vt 0.250000 0.850000
vt 0.200000 0.900000
vt 0.150000 0.950000
vt 0.075000 1.000000
vt 0.850000 0.900000
vt 0.900000 0.950000
vt 0.975000 1.000000
vt 0.800000 0.807046
vt 0.800000 0.850000
vt 0.300000 0.807046
vt 0.300000 0.850000
vt 0.250000 0.900000
vt 0.200000 0.950000
vt 0.125000 1.000000
vt 0.800000 0.900000
vt 0.850000 0.950000
vt 0.925000 1.000000
vt 0.750000 0.807046
vt 0.750000 0.850000
vt 0.350000 0.807046
vt 0.350000 0.850000
vt 0.300000 0.900000
vt 0.250000 0.950000
vt 0.175000 1.000000
vt 0.750000 0.900000
vt 0.800000 0.950000
vt 0.875000 1.000000
vt 0.700000 0.807046
vt 0.700000 0.850000
vt 0.400000 0.807046
vt 0.400000 0.850000
vt 0.350000 0.900000
vt 0.300000 0.950000
vt 0.225000 1.000000
vt 0.700000 0.900000
vt 0.750000 0.950000
vt 0.825000 1.000000
vt 0.650000 0.807046
vt 0.650000 0.850000
vt 0.450000 0.807046
vt 0.450000 0.850000
vt 0.400000 0.900000
vt 0.350000 0.950000
vt 0.275000 1.000000
vt 0.650000 0.900000
vt 0.700000 0.950000
vt 0.775000 1.000000
vt 0.600000 0.807046
vt 0.600000 0.850000
vt 0.500000 0.807046
vt 0.500000 0.850000
vt 0.450000 0.900000
vt 0.400000 0.950000
vt 0.325000 1.000000
vt 0.600000 0.900000
vt 0.650000 0.950000
vt 0.725000 1.000000
vt 0.550000 0.807046
vt 0.550000 0.850000
vt 0.500000 0.900000
vt 0.450000 0.950000
vt 0.375000 1.000000
vt 0.550000 0.900000
vt 0.600000 0.950000
vt 0.675000 1.000000
vt 0.500000 0.950000
vt 0.425000 1.000000
vt 0.550000 0.950000
vt 0.625000 1.000000
vt 0.475000 1.000000
vt 0.575000 1.000000
vt 0.525000 1.000000
vn -0.108013 0.804173 -0.584499
vn -0.590189 0.652793 -0.474909
vn -0.590314 0.767586 -0.249683
vn -0.108039 0.945459 -0.307302
vn -0.107975 0.584146 -0.804434
vn -0.589998 0.474019 -0.653612
vn -0.882862 0.379461 -0.276700
vn -0.882966 0.446330 -0.145470
vn -0.590354 0.807144 0.000001
vn -0.108048 0.994146 0.000001
vn -0.107933 0.306940 -0.945589
vn -0.589766 0.248781 -0.768299
vn -0.882699 0.275316 -0.380846
vn -0.883001 0.469370 0.000000
vn -0.943145 0.268392 -0.196072
vn -0.943219 0.315773 -0.103083
vn -0.590315 0.767585 0.249685
vn -0.108039 0.945459 0.307303
vn -0.107887 -0.000308 -0.994163
vn -0.589511 -0.000859 -0.807760
vn -0.882493 0.144087 -0.447712
vn -0.943030 0.194593 -0.269868
vn -0.882968 0.446324 0.145471
vn -0.943244 0.332100 0.000000
vn -0.979975 0.160560 -0.117770
vn -0.980021 0.189013 -0.061916
vn -0.590191 0.652792 0.474908
vn -0.108014 0.804173 0.584499
vn -0.107838 -0.307496 -0.945419
vn -0.589248 -0.250449 -0.768155
vn -0.882265 -0.001385 -0.470752
vn -0.942883 0.101603 -0.317251
vn -0.979906 0.116236 -0.162092
vn -0.882863 0.379460 0.276701
vn -0.943220 0.315769 0.103083
vn -0.980035 0.198824 0.000000
vn -0.999999 -0.001569 -0.000001
vn -0.590000 0.474020 0.653609
vn -0.107978 0.584144 0.804436
vn -0.107793 -0.584565 -0.804154
vn -0.589007 -0.475567 -0.653381
vn -0.882036 -0.146856 -0.447711
vn -0.942722 -0.001477 -0.333577
vn -0.979818 0.060375 -0.190557
vn -0.882698 0.275321 0.380844
vn -0.943145 0.268389 0.196072
vn -0.980021 0.189014 0.061916
vn -0.589765 0.248780 0.768300
vn -0.107936 0.306932 0.945591
vn -0.107756 -0.804416 -0.584212
vn -0.588818 -0.654197 -0.474678
vn -0.881830 -0.278084 -0.380847
vn -0.942560 -0.104558 -0.317251
vn -0.979721 -0.001543 -0.200362
vn -0.882493 0.144091 0.447710
vn -0.943029 0.194595 0.269869
vn -0.979975 0.160563 0.117768
vn -0.589503 -0.000859 0.807765
vn -0.107888 -0.000310 0.994163
vn -0.107733 -0.945551 -0.307126
vn -0.588695 -0.768873 -0.249543
vn -0.881666 -0.382232 -0.276702
vn -0.942413 -0.197551 -0.269871
vn -0.979624 -0.063452 -0.190554
vn -0.882265 -0.001384 0.470751
vn -0.942883 0.101603 0.317253
vn -0.979905 0.116240 0.162091
vn -0.589242 -0.250449 0.768160
vn -0.107838 -0.307497 0.945419
vn -0.107725 -0.994181 -0.000000
vn -0.588657 -0.808383 0.000000
vn -0.881562 -0.449095 -0.145470
vn -0.942297 -0.271354 -0.196072
vn -0.979536 -0.119307 -0.162097
vn -0.882036 -0.146855 0.447712
vn -0.942721 -0.001479 0.333578
vn -0.979818 0.060363 0.190560
vn -0.589004 -0.475569 0.653382
vn -0.107791 -0.584566 0.804154
vn -0.107733 -0.945552 0.307124
vn -0.588695 -0.768873 0.249543
vn -0.881527 -0.472133 0.000000
vn -0.942223 -0.318732 -0.103079
vn -0.979466 -0.163637 -0.117765
vn -0.881830 -0.278084 0.380848
vn -0.942559 -0.104559 0.317254
vn -0.979720 -0.001538 0.200364
vn -0.588818 -0.654198 0.474678
vn -0.107755 -0.804418 0.584210
vn -0.881563 -0.449093 0.145470
vn -0.942199 -0.335054 -0.000000
vn -0.979422 -0.192091 -0.061913
vn -0.881667 -0.382230 0.276702
vn -0.942413 -0.197551 0.269873
vn -0.979625 -0.063441 0.190554
vn -0.942224 -0.318731 0.103079
vn -0.979408 -0.201893 0.000000
vn -0.942297 -0.271353 0.196071
vn -0.979536 -0.119310 0.162094
vn -0.979422 -0.192091 0.061913
vn -0.979466 -0.163639 0.117763
vn 0.812349 -0.471346 0.343398
vn 0.812474 -0.554340 0.180536
vn 0.890285 -0.432982 0.141136
vn 0.890183 -0.368108 0.268460
vn 0.812155 -0.342098 0.472624
vn 0.890024 -0.267069 0.369502
vn 0.972362 -0.221906 0.072596
vn 0.972309 -0.188541 0.138088
vn 0.812513 -0.582943 -0.000000
vn 0.890319 -0.455338 -0.000000
vn 0.811926 -0.179243 0.555562
vn 0.889830 -0.139754 0.434364
vn 0.972227 -0.136558 0.190070
vn 0.972381 -0.233400 -0.000000
vn 0.982507 -0.176967 0.057997
vn 0.982464 -0.150312 0.110321
vn 0.812473 -0.554342 -0.180536
vn 0.890285 -0.432982 -0.141136
vn 0.811671 0.001284 0.584114
vn 0.889615 0.001384 0.456709
vn 0.972121 -0.071070 0.223448
vn 0.982400 -0.108782 0.151846
vn 0.972363 -0.221903 -0.072596
vn 0.982521 -0.186153 -0.000000
vn 0.999999 0.001567 -0.000001
vn 0.812350 -0.471350 -0.343391
vn 0.890183 -0.368110 -0.268456
vn 0.811405 0.181786 0.555496
vn 0.889395 0.142521 0.434356
vn 0.972005 0.001520 0.234954
vn 0.982317 -0.056461 0.178511
vn 0.972310 -0.188536 -0.138089
vn 0.982507 -0.176967 -0.057997
vn 0.812161 -0.342091 -0.472619
vn 0.890027 -0.267066 -0.369498
vn 0.811163 0.344590 0.472517
vn 0.889194 0.269835 0.369490
vn 0.971889 0.074128 0.223464
vn 0.982226 0.001534 0.187694
vn 0.972227 -0.136562 -0.190070
vn 0.982465 -0.150307 -0.110324
vn 0.811923 -0.179229 -0.555569
vn 0.889828 -0.139748 -0.434369
vn 0.810973 0.473786 0.343293
vn 0.889037 0.370874 0.268451
vn 0.971784 0.139638 0.190096
vn 0.982135 0.059539 0.178509
vn 0.972121 -0.071076 -0.223447
vn 0.982400 -0.108778 -0.151847
vn 0.811660 0.001287 -0.584128
vn 0.889609 0.001386 -0.456720
vn 0.810851 0.556731 0.180476
vn 0.888936 0.435746 0.141133
vn 0.971702 0.191623 0.138114
vn 0.982053 0.111868 0.151846
vn 0.972006 0.001524 -0.234953
vn 0.982317 -0.056464 -0.178508
vn 0.811396 0.181789 -0.555509
vn 0.889389 0.142525 -0.434365
vn 0.810810 0.585310 -0.000000
vn 0.888901 0.458100 -0.000000
vn 0.971649 0.225001 0.072611
vn 0.981988 0.153390 0.110321
vn 0.971889 0.074134 -0.223462
vn 0.982227 0.001536 -0.187693
vn 0.811159 0.344594 -0.472521
vn 0.889192 0.269839 -0.369493
vn 0.810849 0.556733 -0.180476
vn 0.888934 0.435750 -0.141132
vn 0.971630 0.236506 0.000000
vn 0.981947 0.180046 0.057997
vn 0.971784 0.139638 -0.190096
vn 0.982135 0.059546 -0.178509
vn 0.810972 0.473788 -0.343293
vn 0.889035 0.370879 -0.268451
vn 0.971648 0.225007 -0.072610
vn 0.981933 0.189232 -0.000000
vn 0.971701 0.191631 -0.138116
vn 0.982053 0.111863 -0.151848
vn 0.981947 0.180046 -0.057997
vn 0.981988 0.153390 -0.110324
s 1
g polySurface106 polySurface55
usemtl initialShadingGroup
f 1/1/1 2/2/2 3/3/3 4/4/4
f 5/5/5 6/6/6 2/2/2 1/1/1
f 3/3/3 2/2/2 7/7/7 8/8/8
f 4/9/4 3/10/3 9/11/9 10/12/10
f 11/13/11 12/14/12 6/6/6 5/5/5
f 2/2/2 6/6/6 13/15/13 7/7/7
f 9/11/9 3/10/3 8/16/8 14/17/14
f 8/8/8 7/7/7 15/18/15 16/19/16
f 10/12/10 9/11/9 17/20/17 18/21/18
f 19/22/19 20/23/20 12/14/12 11/13/11
f 6/6/6 12/14/12 21/24/21 13/15/13
f 7/7/7 13/15/13 22/25/22 15/18/15
f 17/20/17 9/11/9 14/17/14 23/26/23
f 14/17/14 8/16/8 16/27/16 24/28/24
f 16/19/16 15/18/15 25/29/25 26/30/26
f 18/21/18 17/20/17 27/31/27 28/32/28
f 29/33/29 30/34/30 20/23/20 19/22/19
f 12/14/12 20/23/20 31/35/31 21/24/21
f 13/15/13 21/24/21 32/36/32 22/25/22
f 15/18/15 22/25/22 33/37/33 25/29/25
f 27/31/27 17/20/17 23/26/23 34/38/34
f 23/26/23 14/17/14 24/28/24 35/39/35
f 24/28/24 16/27/16 26/40/26 36/41/36
f 26/30/26 25/29/25 37/42/37
f 28/32/28 27/31/27 38/43/38 39/44/39
f 40/45/40 41/46/41 30/34/30 29/33/29
f 20/23/20 30/34/30 42/47/42 31/35/31
f 21/24/21 31/35/31 43/48/43 32/36/32
f 22/25/22 32/36/32 44/49/44 33/37/33
f 25/29/25 33/37/33 37/50/37
f 38/43/38 27/31/27 34/38/34 45/51/45
f 34/38/34 23/26/23 35/39/35 46/52/46
f 35/39/35 24/28/24 36/41/36 47/53/47
f 36/41/36 26/40/26 37/54/37
f 39/44/39 38/43/38 48/55/48 49/56/49
f 50/57/50 51/58/51 41/46/41 40/45/40
f 30/34/30 41/46/41 52/59/52 42/47/42
f 31/35/31 42/47/42 53/60/53 43/48/43
f 32/36/32 43/48/43 54/61/54 44/49/44
f 33/37/33 44/49/44 37/62/37
f 48/55/48 38/43/38 45/51/45 55/63/55
f 45/51/45 34/38/34 46/52/46 56/64/56
f 46/52/46 35/39/35 47/53/47 57/65/57
f 47/53/47 36/41/36 37/66/37
f 49/56/49 48/55/48 58/67/58 59/68/59
f 60/69/60 61/70/61 51/58/51 50/57/50
f 41/46/41 51/58/51 62/71/62 52/59/52
f 42/47/42 52/59/52 63/72/63 53/60/53
f 43/48/43 53/60/53 64/73/64 54/61/54
f 44/49/44 54/61/54 37/74/37
f 58/67/58 48/55/48 55/63/55 65/75/65
f 55/63/55 45/51/45 56/64/56 66/76/66
f 56/64/56 46/52/46 57/65/57 67/77/67
f 57/65/57 47/53/47 37/78/37
f 59/68/59 58/67/58 68/79/68 69/80/69
f 70/81/70 71/82/71 61/70/61 60/69/60
f 51/58/51 61/70/61 72/83/72 62/71/62
f 52/59/52 62/71/62 73/84/73 63/72/63
f 53/60/53 63/72/63 74/85/74 64/73/64
f 54/61/54 64/73/64 37/86/37
f 68/79/68 58/67/58 65/75/65 75/87/75
f 65/75/65 55/63/55 66/76/66 76/88/76
f 66/76/66 56/64/56 67/77/67 77/89/77
f 67/77/67 57/65/57 37/90/37
f 69/80/69 68/79/68 78/91/78 79/92/79
f 80/93/80 81/94/81 71/82/71 70/81/70
f 61/70/61 71/82/71 82/95/82 72/83/72
f 62/71/62 72/83/72 83/96/83 73/84/73
f 63/72/63 73/84/73 84/97/84 74/85/74
f 64/73/64 74/85/74 37/98/37
f 78/91/78 68/79/68 75/87/75 85/99/85
f 75/87/75 65/75/65 76/88/76 86/100/86
f 76/88/76 66/76/66 77/89/77 87/101/87
f 77/89/77 67/77/67 37/102/37
f 79/92/79 78/91/78 88/103/88 89/104/89
f 89/104/89 88/103/88 81/94/81 80/93/80
f 71/82/71 81/94/81 90/105/90 82/95/82
f 72/83/72 82/95/82 91/106/91 83/96/83
f 73/84/73 83/96/83 92/107/92 84/97/84
f 74/85/74 84/97/84 37/108/37
f 88/103/88 78/91/78 85/99/85 93/109/93
f 85/99/85 75/87/75 86/100/86 94/110/94
f 86/100/86 76/88/76 87/101/87 95/111/95
f 87/101/87 77/89/77 37/112/37
f 81/94/81 88/103/88 93/109/93 90/105/90
f 82/95/82 90/105/90 96/113/96 91/106/91
f 83/96/83 91/106/91 97/114/97 92/107/92
f 84/97/84 92/107/92 37/115/37
f 93/109/93 85/99/85 94/110/94 98/116/98
f 94/110/94 86/100/86 95/111/95 99/117/99
f 95/111/95 87/101/87 37/118/37
f 90/105/90 93/109/93 98/116/98 96/113/96
f 91/106/91 96/113/96 100/119/100 97/114/97
f 92/107/92 97/114/97 37/120/37
f 98/116/98 94/110/94 99/117/99 101/121/101
f 99/117/99 95/111/95 37/122/37
f 96/113/96 98/116/98 101/121/101 100/119/100
f 97/114/97 100/119/100 37/123/37
f 101/121/101 99/117/99 37/124/37
f 100/119/100 101/121/101 37/125/37
s 2
f 1/126/102 4/127/103 102/128/104 103/129/105
f 5/130/106 1/126/102 103/129/105 104/131/107
f 102/128/104 105/132/108 106/133/109 103/129/105
f 4/134/103 10/135/110 107/136/111 102/137/104
f 11/138/112 5/130/106 104/131/107 108/139/113
f 103/129/105 106/133/109 109/140/114 104/131/107
f 107/136/111 110/141/115 105/142/108 102/137/104
f 105/132/108 111/143/116 112/144/117 106/133/109
f 10/135/110 18/145/118 113/146/119 107/136/111
f 19/147/120 11/138/112 108/139/113 114/148/121
f 104/131/107 109/140/114 115/149/122 108/139/113
f 106/133/109 112/144/117 116/150/123 109/140/114
f 113/146/119 117/151/124 110/141/115 107/136/111
f 110/141/115 118/152/125 111/153/116 105/142/108
f 111/143/116 119/154/126 112/144/117
f 18/145/118 28/155/127 120/156/128 113/146/119
f 29/157/129 19/147/120 114/148/121 121/158/130
f 108/139/113 115/149/122 122/159/131 114/148/121
f 109/140/114 116/150/123 123/160/132 115/149/122
f 112/144/117 119/161/126 116/150/123
f 120/156/128 124/162/133 117/151/124 113/146/119
f 117/151/124 125/163/134 118/152/125 110/141/115
f 118/152/125 119/164/126 111/153/116
f 28/155/127 39/165/135 126/166/136 120/156/128
f 40/167/137 29/157/129 121/158/130 127/168/138
f 114/148/121 122/159/131 128/169/139 121/158/130
f 115/149/122 123/160/132 129/170/140 122/159/131
f 116/150/123 119/171/126 123/160/132
f 126/166/136 130/172/141 124/162/133 120/156/128
f 124/162/133 131/173/142 125/163/134 117/151/124
f 125/163/134 119/174/126 118/152/125
f 39/165/135 49/175/143 132/176/144 126/166/136
f 50/177/145 40/167/137 127/168/138 133/178/146
f 121/158/130 128/169/139 134/179/147 127/168/138
f 122/159/131 129/170/140 135/180/148 128/169/139
f 123/160/132 119/181/126 129/170/140
f 132/176/144 136/182/149 130/172/141 126/166/136
f 130/172/141 137/183/150 131/173/142 124/162/133
f 131/173/142 119/184/126 125/163/134
f 49/175/143 59/185/151 138/186/152 132/176/144
f 60/187/153 50/177/145 133/178/146 139/188/154
f 127/168/138 134/179/147 140/189/155 133/178/146
f 128/169/139 135/180/148 141/190/156 134/179/147
f 129/170/140 119/191/126 135/180/148
f 138/186/152 142/192/157 136/182/149 132/176/144
f 136/182/149 143/193/158 137/183/150 130/172/141
f 137/183/150 119/194/126 131/173/142
f 59/185/151 69/195/159 144/196/160 138/186/152
f 70/197/161 60/187/153 139/188/154 145/198/162
f 133/178/146 140/189/155 146/199/163 139/188/154
f 134/179/147 141/190/156 147/200/164 140/189/155
f 135/180/148 119/201/126 141/190/156
f 144/196/160 148/202/165 142/192/157 138/186/152
f 142/192/157 149/203/166 143/193/158 136/182/149
f 143/193/158 119/204/126 137/183/150
f 69/195/159 79/205/167 150/206/168 144/196/160
f 80/207/169 70/197/161 145/198/162 151/208/170
f 139/188/154 146/199/163 152/209/171 145/198/162
f 140/189/155 147/200/164 153/210/172 146/199/163
f 141/190/156 119/211/126 147/200/164
f 150/206/168 154/212/173 148/202/165 144/196/160
f 148/202/165 155/213/174 149/203/166 142/192/157
f 149/203/166 119/214/126 143/193/158
f 79/205/167 89/215/175 156/216/176 150/206/168
f 89/215/175 80/207/169 151/208/170 156/216/176
f 145/198/162 152/209/171 157/217/177 151/208/170
f 146/199/163 153/210/172 158/218/178 152/209/171
f 147/200/164 119/219/126 153/210/172
f 156/216/176 159/220/179 154/212/173 150/206/168
f 154/212/173 160/221/180 155/213/174 148/202/165
f 155/213/174 119/222/126 149/203/166
f 151/208/170 157/217/177 159/220/179 156/216/176
f 152/209/171 158/218/178 161/223/181 157/217/177
f 153/210/172 119/224/126 158/218/178
f 159/220/179 162/225/182 160/221/180 154/212/173
f 160/221/180 119/226/126 155/213/174
f 157/217/177 161/223/181 162/225/182 159/220/179
f 158/218/178 119/227/126 161/223/181
f 162/225/182 119/228/126 160/221/180
f 161/223/181 119/229/126 162/225/182
